<?xml version="1.0" encoding="UTF-8"?>
<!DOCTYPE svg PUBLIC "-//W3C//DTD SVG 1.0//EN" "http://www.w3.org/TR/2001/REC-SVG-20010904/DTD/svg10.dtd">
<!-- Creator: CorelDRAW 2019 (64-Bit) -->
<svg xmlns="http://www.w3.org/2000/svg" xml:space="preserve" width="222px" height="42px" version="1.0" style="shape-rendering:geometricPrecision; text-rendering:geometricPrecision; image-rendering:optimizeQuality; fill-rule:evenodd; clip-rule:evenodd"
viewBox="0 0 440.01 82.96"
 xmlns:xlink="http://www.w3.org/1999/xlink"
 xmlns:xodm="http://www.corel.com/coreldraw/odm/2003">
 <defs>
  <style type="text/css">
   <![CDATA[
    .fil1 {fill:#B7FFB6;fill-rule:nonzero}
    .fil0 {fill:white;fill-rule:nonzero}
   ]]>
  </style>
 </defs>
 <g id="Layer_x0020_1">
  <metadata id="CorelCorpID_0Corel-Layer"/>
  <path class="fil0" d="M61.57 82.53c-1.36,-0.08 -2.69,-0.02 -3.96,0.16 -1.28,0.18 -2.56,0.24 -3.84,0.16 -0.85,0 -1.7,-0.11 -2.55,-0.32 -0.86,-0.22 -1.58,-0.63 -2.18,-1.21 -0.51,-0.44 -0.98,-1.23 -1.4,-2.37 -0.43,-1.13 -0.77,-2.34 -1.03,-3.62 -0.25,-1.29 -0.46,-2.53 -0.63,-3.74 -0.18,-1.21 -0.3,-2.15 -0.39,-2.81 -0.6,-4.39 -1.13,-8.77 -1.59,-13.13 -0.48,-4.37 -1.01,-8.75 -1.6,-13.14 -0.51,4.32 -1.03,8.63 -1.54,12.92 -0.51,4.28 -1.23,8.55 -2.17,12.8 -0.17,0.66 -0.38,1.6 -0.64,2.81 -0.26,1.21 -0.57,2.45 -0.96,3.73 -0.38,1.29 -0.83,2.46 -1.34,3.52 -0.51,1.07 -1.07,1.82 -1.66,2.26 -0.68,0.51 -1.47,0.84 -2.37,0.99 -0.89,0.14 -1.81,0.25 -2.75,0.33 -2.04,0.14 -4.08,0.22 -6.13,0.22 -2.05,0 -4.05,-0.19 -6.01,-0.55 -0.68,-0.15 -1.34,-0.3 -1.98,-0.44 -0.64,-0.15 -1.21,-0.41 -1.72,-0.77 -0.52,-0.37 -0.94,-0.79 -1.28,-1.27 -0.34,-0.47 -0.6,-0.97 -0.77,-1.48 -0.34,-0.74 -0.58,-1.49 -0.7,-2.25 -0.13,-0.78 -0.28,-1.56 -0.45,-2.37 -0.17,-1.24 -0.51,-3.5 -1.02,-6.76 -0.52,-3.26 -1.09,-7 -1.73,-11.21 -0.64,-4.22 -1.32,-8.67 -2.04,-13.36 -0.73,-4.69 -1.43,-9.14 -2.11,-13.36 -0.69,-4.21 -1.28,-7.93 -1.79,-11.16 -0.51,-3.22 -0.9,-5.49 -1.15,-6.81 -0.09,-0.44 0.02,-0.84 0.31,-1.21 0.3,-0.37 0.67,-0.7 1.09,-0.99 0.68,-0.59 1.54,-0.9 2.56,-0.94 1.02,-0.03 2,-0.01 2.94,0.06 0.34,0 1.09,-0.04 2.23,-0.11 1.16,-0.07 2.35,-0.15 3.58,-0.22 1.24,-0.07 2.41,-0.13 3.52,-0.16 1.11,-0.04 1.83,-0.06 2.17,-0.06 1.03,0.07 1.71,0.64 2.05,1.7 0.34,1.07 0.6,2.04 0.77,2.92 0.42,2.85 0.76,5.71 1.02,8.57 0.25,2.86 0.59,5.68 1.02,8.47 0.6,3.88 1.22,7.75 1.85,11.6 0.64,3.84 1.35,7.67 2.11,11.48 1.2,-5.79 2.13,-11.59 2.81,-17.42 0.69,-5.83 1.5,-11.64 2.43,-17.42 0.09,-0.52 0.22,-1.03 0.39,-1.55 0.17,-0.51 0.47,-0.84 0.89,-0.99 0.68,-0.29 1.37,-0.62 2.05,-0.98 0.68,-0.37 1.4,-0.63 2.17,-0.77 0.6,-0.08 1.58,-0.11 2.94,-0.11 1.36,0 2.83,0.03 4.41,0.11 1.58,0.07 3.05,0.14 4.41,0.22 1.36,0.07 2.34,0.14 2.94,0.22 0.43,0.07 0.83,0.29 1.21,0.66 0.39,0.36 0.67,0.69 0.84,0.98 0.08,0.3 0.23,0.83 0.44,1.6 0.21,0.77 0.41,1.56 0.58,2.36 0.17,0.81 0.32,1.6 0.45,2.37 0.12,0.77 0.23,1.3 0.32,1.59 0.33,2.42 0.59,4.86 0.76,7.31 0.17,2.46 0.36,4.89 0.58,7.31 0.21,2.42 0.53,4.84 0.95,7.26 0.43,2.42 1.03,4.8 1.79,7.14 0.09,-0.73 0.24,-2.07 0.45,-4.01 0.22,-1.94 0.45,-4.14 0.7,-6.6 0.26,-2.45 0.52,-5.07 0.77,-7.85 0.26,-2.79 0.51,-5.43 0.77,-7.92 0.26,-2.49 0.45,-4.69 0.57,-6.6 0.13,-1.9 0.24,-3.26 0.32,-4.07 0,-0.29 0.03,-0.87 0.07,-1.75 0.04,-0.88 0.11,-1.82 0.19,-2.81 0.09,-0.99 0.15,-1.94 0.19,-2.85 0.05,-0.92 0.07,-1.53 0.07,-1.82 0,-0.37 0.04,-1.04 0.13,-2.03 0.08,-0.99 0.21,-1.67 0.37,-2.04 0.26,-0.44 0.69,-0.71 1.29,-0.82 0.59,-0.11 1.27,-0.13 2.04,-0.06 0.77,0.08 1.53,0.17 2.3,0.28 0.77,0.11 1.41,0.16 1.92,0.16 0.34,0 0.93,0 1.79,0 0.85,0 1.75,0 2.68,0 0.94,0 1.83,0 2.69,0 0.85,0 1.4,0.04 1.66,0.11 0.59,-0.22 1.09,-0.23 1.47,-0.05 0.38,0.18 0.68,0.49 0.89,0.93 0.22,0.44 0.34,0.96 0.39,1.54 0.04,0.59 0.06,1.14 0.06,1.65 -0.17,2.13 -0.43,4.25 -0.77,6.38 -0.34,2.12 -0.68,4.25 -1.02,6.37 -0.43,2.79 -0.74,5.61 -0.96,8.47 -0.21,2.86 -0.4,5.71 -0.57,8.57 0,0.66 -0.11,1.73 -0.32,3.19 -0.22,1.47 -0.43,3.15 -0.64,5.06 -0.21,1.9 -0.47,3.92 -0.77,6.05 -0.3,2.12 -0.57,4.15 -0.83,6.1 -0.26,1.94 -0.49,3.64 -0.7,5.11 -0.21,1.46 -0.36,2.49 -0.45,3.08 -0.17,0.88 -0.36,2.2 -0.58,3.95 -0.21,1.76 -0.51,3.59 -0.89,5.5 -0.38,1.91 -0.83,3.68 -1.34,5.33 -0.51,1.65 -1.07,2.84 -1.66,3.58 -0.34,0.36 -1.05,0.62 -2.11,0.77 -1.07,0.14 -1.9,0.25 -2.5,0.33l-6.77 0z"/>
  <path id="1" class="fil0" d="M132.51 73.84c-3.23,0.29 -6.43,0.35 -9.58,0.16 -3.16,-0.18 -6.35,-0.27 -9.59,-0.27 -0.68,0 -1.98,0.02 -3.9,0.05 -1.92,0.04 -3.96,0.08 -6.13,0.11 -2.18,0.04 -4.22,0.06 -6.14,0.06 -1.92,0 -3.22,-0.04 -3.9,-0.11 -0.85,-0.15 -1.72,-0.44 -2.62,-0.88 -0.89,-0.44 -1.43,-1.02 -1.6,-1.76 -0.25,-0.81 -0.44,-2.2 -0.57,-4.18 -0.13,-1.97 -0.2,-4.1 -0.2,-6.37 0,-2.27 0.03,-4.42 0.07,-6.43 0.04,-2.02 0.06,-3.43 0.06,-4.24 0,-1.83 0,-3.64 0,-5.44 0,-1.79 -0.04,-3.61 -0.13,-5.44 0,-0.73 0.03,-2.24 0.07,-4.51 0.04,-2.27 0.08,-4.67 0.13,-7.2 0.04,-2.53 0.08,-4.91 0.13,-7.14 0.04,-2.24 0.1,-3.72 0.19,-4.46 0,-0.36 0.06,-0.75 0.19,-1.15 0.13,-0.4 0.4,-0.72 0.83,-0.93 0.26,-0.22 0.83,-0.41 1.73,-0.55 0.89,-0.15 1.51,-0.3 1.85,-0.44 0.51,-0.15 1.04,-0.24 1.6,-0.28 0.55,-0.03 1.08,-0.09 1.6,-0.16 3.66,-0.3 7.32,-0.44 10.99,-0.44 3.66,0 7.37,0.03 11.12,0.11 0.42,0 1.24,0.03 2.43,0.11 1.19,0.07 2.45,0.13 3.77,0.16 1.32,0.04 2.58,0.09 3.77,0.17 1.19,0.07 2,0.14 2.43,0.22l0.13 0c1.1,-0.15 1.74,0.25 1.91,1.21 0.09,0.14 0.09,0.31 0,0.49 -0.08,0.18 -0.13,0.35 -0.13,0.49 0,0.44 -0.02,1.29 -0.06,2.53 -0.04,1.25 -0.09,2.57 -0.13,3.96 -0.04,1.39 -0.08,2.71 -0.12,3.96 -0.05,1.25 -0.07,2.09 -0.07,2.53 0,0.44 -0.19,0.8 -0.57,1.1 -0.39,0.29 -0.83,0.4 -1.35,0.33 -0.85,-0.15 -2.36,-0.26 -4.53,-0.33 -2.18,-0.08 -4.48,-0.11 -6.91,-0.11 -2.43,0 -4.73,0.02 -6.9,0.05 -2.17,0.04 -3.69,0.09 -4.54,0.17 -0.08,1.39 -0.04,2.75 0.13,4.07 0.17,1.31 0.26,2.67 0.26,4.06 0.34,0 1.08,0.02 2.23,0.06 1.15,0.03 2.37,0.07 3.65,0.11 1.27,0.03 2.47,0.07 3.58,0.11 1.1,0.03 1.83,0.05 2.17,0.05 0.25,0 0.62,0 1.08,0 0.48,0 0.98,0 1.54,0 0.55,0 1.08,0 1.6,0 0.51,0 0.85,0.04 1.02,0.11 0.94,0.37 1.28,0.99 1.02,1.87 -0.17,0.29 -0.25,0.48 -0.25,0.55 -0.09,2.49 -0.35,4.95 -0.77,7.37 0,0.44 0.04,0.73 0.13,0.88 0.42,0.66 0.38,1.24 -0.13,1.75 -0.51,0.52 -1.19,0.74 -2.05,0.66 -0.51,0 -1.51,-0.02 -3,-0.05 -1.49,-0.04 -3.07,-0.06 -4.73,-0.06 -1.66,0 -3.24,0 -4.73,0 -1.49,0 -2.49,0.04 -3,0.11 0.08,0.96 0.17,1.89 0.25,2.81 0.09,0.91 0.13,1.85 0.13,2.8 2.3,0.37 4.6,0.62 6.9,0.77 2.3,0.15 4.6,0.18 6.91,0.11 0.34,0 0.93,-0.07 1.78,-0.22 0.86,-0.15 1.8,-0.31 2.82,-0.49 1.02,-0.19 1.96,-0.33 2.81,-0.44 0.85,-0.11 1.45,-0.17 1.79,-0.17 0.94,0 1.62,0.29 2.04,0.88 0.26,0.51 0.43,1.39 0.51,2.64 0.09,1.24 0.15,2.56 0.2,3.96 0.04,1.39 0.06,2.73 0.06,4.01 0,1.28 0,2.18 0,2.69 0,0.15 0,0.46 0,0.94 0,0.47 0.04,0.79 0.13,0.93 0.17,0.44 0.11,0.86 -0.19,1.26 -0.3,0.41 -0.71,0.65 -1.22,0.72z"/>
  <path id="2" class="fil0" d="M174.95 82.42c-1.71,0.29 -3.45,0.45 -5.24,0.49 -1.79,0.04 -3.54,0.05 -5.24,0.05 -0.77,0 -2.09,0 -3.96,0 -1.88,0 -3.88,-0.01 -6.01,-0.05 -2.13,-0.04 -4.11,-0.09 -5.95,-0.17 -1.83,-0.07 -3.13,-0.18 -3.9,-0.32 -0.42,-0.15 -1.02,-0.44 -1.78,-0.88 -0.77,-0.44 -1.24,-0.88 -1.41,-1.32 -0.09,-0.15 -0.13,-0.61 -0.13,-1.38 0,-0.77 0,-1.26 0,-1.48 -0.25,-2.13 -0.42,-4.27 -0.51,-6.43 -0.08,-2.16 -0.21,-4.31 -0.38,-6.43 -0.09,-0.59 -0.22,-1.85 -0.39,-3.8 -0.17,-1.94 -0.34,-4.01 -0.51,-6.21 -0.17,-2.2 -0.34,-4.27 -0.51,-6.21 -0.17,-1.94 -0.25,-3.24 -0.25,-3.9 0,-0.81 -0.05,-2.18 -0.13,-4.13 -0.09,-1.94 -0.15,-4.12 -0.19,-6.54 -0.05,-2.42 -0.11,-4.98 -0.2,-7.69 -0.08,-2.71 -0.13,-5.28 -0.13,-7.7 0,-2.42 0,-4.58 0,-6.48 0,-1.91 0.05,-3.3 0.13,-4.18 0.09,-0.51 0.24,-1.04 0.45,-1.59 0.22,-0.55 0.62,-0.94 1.22,-1.16 0.34,-0.22 0.93,-0.35 1.78,-0.38 0.86,-0.04 1.75,-0.04 2.69,0 0.94,0.03 1.83,0.07 2.68,0.11 0.85,0.03 1.5,0.05 1.92,0.05 1.96,0.07 3.92,0.09 5.88,0.06 1.96,-0.04 3.92,-0.1 5.88,-0.17 1.71,-0.07 3.37,-0.11 4.99,-0.11 1.62,0 3.24,0.11 4.85,0.33 0.6,0.07 1.41,0.24 2.43,0.5 1.03,0.25 2.09,0.56 3.2,0.93 1.11,0.37 2.15,0.77 3.13,1.21 0.98,0.44 1.68,0.81 2.11,1.1 0.68,0.51 1.24,1.1 1.66,1.76 0.43,0.66 0.85,1.32 1.28,1.98 0.77,1.32 1.32,2.71 1.66,4.18 0.34,1.46 0.6,2.93 0.77,4.39 0.25,1.69 0.44,3.37 0.57,5.06 0.13,1.68 0.07,3.37 -0.19,5.05 -0.34,2.94 -1.7,5.54 -4.09,7.81 -0.68,0.66 -1.45,1.25 -2.3,1.76 -0.85,0.51 -1.75,0.99 -2.68,1.43 1.61,0.37 3.15,0.92 4.6,1.65 1.19,0.8 2.21,1.74 3.06,2.8 0.86,1.06 1.58,2.22 2.18,3.46 0.94,1.84 1.6,3.72 1.98,5.67 0.38,1.94 0.66,3.9 0.83,5.88 0.17,2.42 0.06,4.85 -0.32,7.31 -0.38,2.45 -1.3,4.71 -2.75,6.76 -0.85,1.1 -1.89,2.07 -3.13,2.91 -1.24,0.85 -2.58,1.56 -4.02,2.15 -0.94,0.36 -1.88,0.73 -2.82,1.1 -0.94,0.36 -1.87,0.62 -2.81,0.77zm-17.38 -63.11c0.17,2.27 0.31,4.55 0.44,6.82 0.13,2.27 0.28,4.54 0.45,6.82 0.77,-0.08 1.56,-0.17 2.37,-0.28 0.8,-0.11 1.55,-0.31 2.23,-0.6 0.85,-0.37 1.66,-0.81 2.43,-1.33 0.77,-0.51 1.24,-1.13 1.41,-1.86 0.08,-0.44 0.17,-1.05 0.25,-1.82 0.09,-0.77 0.09,-1.55 0,-2.36 -0.08,-0.81 -0.21,-1.59 -0.38,-2.36 -0.17,-0.77 -0.39,-1.34 -0.64,-1.71 -0.51,-0.66 -1.19,-1.06 -2.04,-1.21 -1.96,-0.22 -4.14,-0.25 -6.52,-0.11zm2.17 28.26c0,0.51 0.04,1.57 0.13,3.18 0.08,1.62 0.19,3.34 0.32,5.17 0.12,1.83 0.23,3.56 0.32,5.17 0.08,1.61 0.12,2.67 0.12,3.19 0.85,0 1.69,-0.08 2.5,-0.22 0.81,-0.15 1.59,-0.33 2.36,-0.55 0.77,-0.3 1.32,-0.66 1.66,-1.1 0.68,-0.66 1.07,-1.45 1.15,-2.37 0.09,-0.91 0.17,-1.77 0.26,-2.58 0.08,-1.1 0.08,-2.18 0,-3.24 -0.09,-1.07 -0.34,-2.11 -0.77,-3.14 -0.34,-0.73 -1.04,-1.48 -2.11,-2.25 -1.06,-0.77 -2.06,-1.23 -3,-1.37 -0.17,0 -0.66,0.01 -1.47,0.05 -0.81,0.04 -1.3,0.06 -1.47,0.06z"/>
  <path id="3" class="fil1" d="M288.08 77.14c-0.6,0.22 -1.24,0.11 -1.92,-0.33 -1.96,-0.95 -3.92,-1.93 -5.88,-2.92 -1.96,-0.98 -3.92,-1.95 -5.88,-2.91 -0.43,-0.15 -0.82,-0.42 -1.15,-0.82 -0.34,-0.41 -0.47,-0.79 -0.39,-1.16 0.17,-0.51 0.47,-0.93 0.9,-1.26 0.42,-0.33 0.85,-0.68 1.28,-1.05 0.34,-0.29 0.89,-0.89 1.66,-1.81 0.76,-0.92 1.55,-1.91 2.36,-2.97 0.81,-1.06 1.6,-2.05 2.37,-2.97 0.76,-0.91 1.27,-1.55 1.53,-1.92 1.45,-1.69 2.94,-3.34 4.47,-4.95 1.54,-1.61 2.86,-3.37 3.97,-5.27 0.17,-0.15 0.36,-0.39 0.57,-0.72 0.21,-0.33 0.24,-0.57 0.06,-0.71 -0.16,-0.22 -0.52,-0.7 -1.08,-1.43 -0.55,-0.74 -1.17,-1.5 -1.85,-2.31 -0.68,-0.81 -1.3,-1.58 -1.86,-2.31 -0.55,-0.73 -0.91,-1.21 -1.08,-1.43 -1.71,-2.2 -3.39,-4.4 -5.05,-6.6 -1.66,-2.19 -3.3,-4.43 -4.92,-6.7 -0.17,-0.22 -0.5,-0.68 -0.96,-1.37 -0.47,-0.7 -0.96,-1.43 -1.47,-2.2 -0.51,-0.77 -1,-1.51 -1.47,-2.2 -0.47,-0.7 -0.75,-1.16 -0.83,-1.38 -0.26,-0.44 -0.49,-0.97 -0.71,-1.59 -0.21,-0.62 -0.06,-1.08 0.45,-1.38 0.26,-0.14 0.64,-0.29 1.15,-0.44 0.26,-0.07 0.47,-0.16 0.64,-0.27 0.17,-0.11 0.34,-0.2 0.51,-0.27 0.6,-0.22 1.68,-0.59 3.26,-1.1 1.58,-0.52 3.24,-1.07 4.99,-1.65 1.74,-0.59 3.4,-1.17 4.98,-1.76 1.58,-0.59 2.62,-1.03 3.13,-1.32 0.85,-0.44 1.73,-0.5 2.62,-0.17 0.9,0.33 1.17,0.9 0.83,1.71 0.52,0.73 1.28,2.12 2.3,4.18 1.03,2.05 2.07,4.26 3.14,6.65 1.06,2.38 2.06,4.61 3,6.7 0.94,2.09 1.58,3.54 1.92,4.34 2.13,-3.44 4.07,-6.94 5.81,-10.49 1.75,-3.56 3.86,-6.98 6.33,-10.28 0.34,-0.44 0.7,-0.88 1.09,-1.32 0.38,-0.44 0.77,-0.83 1.15,-1.16 0.38,-0.33 0.76,-0.53 1.15,-0.6 0.38,-0.07 0.79,0.07 1.21,0.44 0.26,0.14 0.84,0.46 1.73,0.93 0.89,0.48 1.47,0.79 1.72,0.94 0.26,0.15 0.71,0.44 1.34,0.88 0.65,0.44 1.35,0.93 2.12,1.48 0.76,0.55 1.46,1.05 2.11,1.49 0.63,0.44 1.08,0.73 1.34,0.87 0.76,0.59 1.53,1.25 2.3,1.99 0.76,0.73 0.85,1.46 0.25,2.19 -1.7,2.13 -3.45,4.18 -5.24,6.16 -1.78,1.98 -3.53,3.99 -5.24,6.04 -0.34,0.37 -0.96,1.14 -1.85,2.32 -0.9,1.17 -1.85,2.41 -2.88,3.73 -1.02,1.32 -1.98,2.55 -2.87,3.68 -0.9,1.14 -1.52,1.89 -1.86,2.26 2.56,3.59 5.22,7.11 7.99,10.55 2.77,3.45 5.52,6.93 8.25,10.45 0.76,0.51 1.08,1.13 0.96,1.87 -0.13,0.73 -0.54,1.39 -1.22,1.97 -0.34,0.3 -1.09,0.88 -2.24,1.76 -1.15,0.88 -2.4,1.8 -3.77,2.75 -1.36,0.95 -2.62,1.87 -3.77,2.75 -1.15,0.88 -1.89,1.46 -2.24,1.76 -1.19,0.88 -2.21,0.8 -3.06,-0.22 -1.28,-1.39 -2.39,-2.92 -3.33,-4.56 -0.93,-1.65 -1.81,-3.3 -2.62,-4.95 -0.81,-1.65 -1.64,-3.32 -2.49,-5 -0.85,-1.69 -1.83,-3.3 -2.94,-4.84 -1.87,2.57 -3.68,5.13 -5.43,7.7 -1.75,2.56 -3.56,5.13 -5.44,7.69 -0.16,0.29 -0.42,0.68 -0.76,1.15 -0.34,0.48 -0.68,0.98 -1.02,1.49 -0.34,0.51 -0.71,0.99 -1.09,1.43 -0.38,0.44 -0.74,0.69 -1.08,0.77z"/>
  <path id="4" class="fil0" d="M367.45 77.91c-3.15,0.29 -6.28,0.25 -9.39,-0.11 -3.11,-0.37 -6.16,-1.03 -9.14,-1.98 -1.88,-0.59 -3.62,-1.45 -5.24,-2.59 -1.62,-1.13 -2.9,-2.43 -3.84,-3.9 -1.87,-3.15 -3.02,-6.63 -3.45,-10.44 -0.42,-4.18 -0.64,-8.3 -0.64,-12.37 0,-4.07 0.09,-8.15 0.26,-12.26 0.17,-2.41 0.38,-4.83 0.63,-7.25 0.26,-2.42 0.52,-4.84 0.77,-7.26 0,-0.22 0,-0.53 0,-0.93 0,-0.41 0.03,-0.85 0.07,-1.32 0.04,-0.48 0.08,-0.93 0.12,-1.37 0.05,-0.45 0.15,-0.74 0.33,-0.89 0.42,-0.66 1.23,-1.1 2.42,-1.32 1.19,-0.21 2.52,-0.32 3.97,-0.32 1.45,0 2.87,0.03 4.28,0.11 1.4,0.07 2.53,0.03 3.38,-0.11 0.18,0 0.58,-0.08 1.22,-0.22 0.64,-0.15 1.04,-0.22 1.21,-0.22 0.77,0 1.33,0.2 1.67,0.6 0.33,0.4 0.57,0.9 0.7,1.48 0.13,0.59 0.19,1.23 0.19,1.93 0,0.69 0,1.37 0,2.03 0,2.57 -0.13,5.06 -0.38,7.48 -0.26,2.42 -0.47,4.87 -0.64,7.36 -0.34,3.3 -0.54,6.54 -0.58,9.73 -0.04,3.19 0.15,6.4 0.58,9.62 0.08,0.51 0.25,1.32 0.51,2.42 0.25,1.1 0.6,1.83 1.02,2.2 0.51,0.37 1.39,0.6 2.62,0.71 1.24,0.11 2.2,0.13 2.88,0.06 0.51,-0.15 1,-0.26 1.47,-0.33 0.47,-0.07 0.87,-0.26 1.21,-0.55 0.6,-0.51 0.98,-1.1 1.15,-1.76 0.17,-0.66 0.3,-1.32 0.39,-1.98 0.17,-1.17 0.25,-3.24 0.25,-6.21 0,-2.97 -0.04,-6.14 -0.13,-9.51 -0.08,-3.37 -0.21,-6.54 -0.38,-9.51 -0.17,-2.97 -0.34,-5.04 -0.51,-6.21 0,-0.22 -0.04,-0.66 -0.13,-1.32 -0.09,-0.66 -0.17,-1.34 -0.25,-2.03 -0.09,-0.7 -0.2,-1.38 -0.32,-2.04 -0.13,-0.66 -0.19,-1.09 -0.19,-1.32 0,-1.61 0.89,-2.49 2.68,-2.63 0.43,0 1.26,-0.06 2.49,-0.17 1.24,-0.11 2.56,-0.22 3.97,-0.33 1.4,-0.11 2.72,-0.2 3.96,-0.27 1.23,-0.08 2.06,-0.11 2.49,-0.11 0.43,0 0.83,0.03 1.21,0.11 0.39,0.07 0.75,0.22 1.09,0.44 0.51,0.44 0.85,1.13 1.02,2.08 0.09,0.44 0.17,1.27 0.26,2.48 0.08,1.21 0.19,2.51 0.32,3.9 0.13,1.39 0.25,2.69 0.38,3.9 0.13,1.21 0.24,2.04 0.32,2.48 0.43,5.13 0.75,10.24 0.96,15.33 0.21,5.1 0.23,10.21 0.06,15.34 -0.08,1.39 -0.17,2.77 -0.25,4.12 -0.09,1.36 -0.34,2.66 -0.77,3.9 -0.6,1.47 -1.34,2.88 -2.24,4.24 -0.89,1.35 -2.06,2.47 -3.51,3.35 -1.79,1.1 -3.77,1.94 -5.94,2.53 -2.18,0.58 -4.37,0.99 -6.59,1.21z"/>
  <path id="5" class="fil0" d="M401.84 80.66c-0.94,0.14 -1.92,0.25 -2.94,0.33 -1.03,0.07 -2.01,-0.04 -2.94,-0.33 -1.54,-0.52 -2.52,-1.43 -2.94,-2.75 -0.34,-1.03 -0.68,-2.07 -1.02,-3.14 -0.35,-1.06 -0.6,-2.14 -0.77,-3.24 -0.17,-0.59 -0.34,-1.47 -0.51,-2.64 -0.17,-1.17 -0.04,-2.01 0.38,-2.53 0.68,-0.73 1.96,-1.35 3.83,-1.86 1.88,-0.52 3.9,-0.94 6.08,-1.27 2.17,-0.33 4.3,-0.62 6.39,-0.88 2.09,-0.25 3.69,-0.49 4.79,-0.71 0.34,-0.08 0.85,-0.22 1.54,-0.44 0.68,-0.22 1.36,-0.48 2.04,-0.77 0.68,-0.3 1.3,-0.59 1.86,-0.88 0.55,-0.29 0.95,-0.62 1.21,-0.99 0.76,-1.03 0.76,-2.14 0,-3.35 -0.77,-1.21 -1.75,-2.22 -2.94,-3.03 -1.45,-0.88 -2.96,-1.67 -4.54,-2.36 -1.58,-0.7 -3.15,-1.36 -4.73,-1.98 -1.58,-0.62 -3.13,-1.28 -4.66,-1.98 -1.54,-0.69 -2.99,-1.52 -4.35,-2.47 -2.04,-1.39 -3.62,-3.17 -4.73,-5.33 -1.11,-2.16 -1.81,-4.46 -2.11,-6.88 -0.3,-2.41 -0.21,-4.85 0.26,-7.31 0.46,-2.45 1.34,-4.63 2.62,-6.54 1.19,-1.76 2.7,-3.31 4.54,-4.67 1.83,-1.36 3.85,-2.44 6.07,-3.24 3.24,-1.25 6.62,-2.11 10.16,-2.58 3.54,-0.48 7.09,-1.01 10.67,-1.6 0.86,-0.15 1.73,-0.24 2.62,-0.27 0.9,-0.04 1.73,0.09 2.49,0.38 0.77,0.29 1.41,0.83 1.92,1.6 0.51,0.76 0.94,1.63 1.28,2.58 0.34,0.95 0.6,1.92 0.77,2.91 0.17,0.99 0.29,1.81 0.38,2.47 0.09,0.81 0.11,1.58 0.06,2.31 -0.04,0.74 -0.27,1.47 -0.7,2.2 -0.42,0.88 -1.11,1.5 -2.04,1.87 -0.85,0.37 -2.16,0.72 -3.9,1.05 -1.75,0.33 -3.54,0.69 -5.37,1.1 -1.83,0.4 -3.54,0.84 -5.11,1.31 -1.58,0.48 -2.62,1.05 -3.14,1.71 -0.42,0.58 -0.57,1.23 -0.44,1.92 0.13,0.7 0.42,1.4 0.89,2.09 0.47,0.7 1.03,1.36 1.66,1.98 0.64,0.62 1.26,1.15 1.86,1.59 1.96,1.54 4.11,2.84 6.45,3.91 2.35,1.06 4.63,2.25 6.84,3.57 1.02,0.59 2,1.26 2.94,2.03 0.94,0.77 1.75,1.63 2.43,2.59 0.85,1.09 1.47,2.29 1.85,3.57 0.39,1.28 0.67,2.58 0.83,3.9 0.34,2.42 0.22,4.89 -0.38,7.42 -0.6,2.53 -1.7,4.82 -3.32,6.87 -2.13,2.64 -4.9,4.82 -8.31,6.54 -3.41,1.73 -6.9,2.95 -10.48,3.69 -2.56,0.51 -5.12,0.97 -7.67,1.37 -2.56,0.4 -5.12,0.79 -7.67,1.16z"/>
  <path id="6" class="fil1" d="M198.98 82.53c-0.43,0.14 -0.83,0.07 -1.21,-0.22 -0.39,-0.3 -0.62,-0.63 -0.71,-0.99 0,-0.22 -0.06,-0.43 -0.19,-0.61 -0.13,-0.18 -0.19,-0.38 -0.19,-0.6 0,-3.38 -0.11,-6.73 -0.32,-10.06 -0.21,-3.34 -0.36,-6.73 -0.45,-10.17 0,-0.73 -0.02,-2 -0.06,-3.79 -0.04,-1.8 -0.09,-3.87 -0.13,-6.22 -0.04,-2.34 -0.08,-4.83 -0.13,-7.47 -0.04,-2.64 -0.06,-5.13 -0.06,-7.48 0,-2.34 0,-4.43 0,-6.26 0,-1.84 0,-3.12 0,-3.85 0.08,-2.42 0.11,-4.84 0.06,-7.26 -0.04,-2.42 -0.02,-4.8 0.07,-7.14 0,-1.03 0.17,-2.05 0.51,-3.08 0.34,-1.03 0.98,-1.8 1.92,-2.31 1.19,-0.73 2.59,-1.06 4.21,-0.99 1.62,0.07 3.16,0.22 4.61,0.44 0.93,0.15 2.57,0.2 4.92,0.17 2.34,-0.04 4.86,-0.11 7.54,-0.22 2.68,-0.11 5.2,-0.24 7.54,-0.39 2.34,-0.15 3.98,-0.22 4.92,-0.22 0.6,0 1.41,-0.02 2.43,-0.05 1.02,-0.04 2.02,-0.02 3,0.05 0.98,0.07 1.9,0.2 2.75,0.39 0.85,0.18 1.49,0.49 1.92,0.93 0.25,0.29 0.47,0.77 0.64,1.43 0.17,0.66 0.3,1.37 0.38,2.14 0.09,0.77 0.13,1.51 0.13,2.2 0,0.7 0,1.23 0,1.6 0,0.29 0,0.75 0,1.37 0,0.62 -0.02,1.3 -0.06,2.03 -0.05,0.74 -0.09,1.41 -0.13,2.04 -0.04,0.62 -0.11,1.08 -0.19,1.37 -0.26,0.66 -0.86,1.06 -1.79,1.21 -0.43,0.07 -1.2,0.07 -2.31,0 -1.1,-0.07 -1.87,-0.15 -2.29,-0.22 -0.43,0 -1.2,-0.02 -2.31,-0.05 -1.1,-0.04 -2.28,-0.08 -3.51,-0.11 -1.24,-0.04 -2.43,-0.06 -3.58,-0.06 -1.15,0 -1.9,0 -2.24,0 -0.25,0 -0.94,0.04 -2.04,0.11 -1.11,0.08 -1.79,0.15 -2.05,0.22 -0.34,0 -1.15,-0.05 -2.43,-0.16 -1.27,-0.11 -2.08,-0.17 -2.42,-0.17 0,0.29 0,0.86 0,1.71 0,0.84 0.01,1.74 0.06,2.69 0.04,0.95 0.06,1.85 0.06,2.69 0,0.85 0,1.41 0,1.71 2.13,-0.3 4.29,-0.48 6.46,-0.55 2.17,-0.08 4.37,-0.08 6.58,0 0.26,0 0.83,0 1.72,0 0.9,0 1.84,-0.02 2.82,-0.06 0.98,-0.03 1.92,-0.05 2.81,-0.05 0.89,0 1.51,0 1.86,0 0.42,0.07 0.85,0.29 1.27,0.66 0.43,0.36 0.69,0.73 0.77,1.1 0.08,0.36 0,0.73 -0.26,1.09 0,0.37 0.03,1.16 0.07,2.37 0.04,1.21 0.06,2.51 0.06,3.9 0,1.39 0,2.69 0,3.9 0,1.21 0,2 0,2.37 0,0.29 -0.17,0.66 -0.51,1.1 -0.42,0.29 -1,0.51 -1.73,0.66 -0.72,0.14 -1.53,0.25 -2.42,0.33 -0.9,0.07 -1.75,0.11 -2.56,0.11 -0.81,0 -1.47,-0.04 -1.98,-0.11 -0.85,-0.15 -1.7,-0.26 -2.56,-0.33 -0.85,-0.08 -1.7,-0.08 -2.55,0 -1.45,0.14 -2.9,0.35 -4.35,0.6 -1.45,0.26 -2.9,0.31 -4.35,0.17 0.34,3.81 0.51,7.62 0.51,11.43 0,3.81 0.05,7.62 0.13,11.43 0.09,1.83 0.19,3.63 0.32,5.39 0.13,1.76 0.28,3.55 0.45,5.39 0.34,0.51 0.36,1 0.06,1.48 -0.29,0.48 -0.78,0.72 -1.47,0.72 -0.42,0 -1.26,0 -2.49,0 -1.23,0 -2.53,0.01 -3.9,0.05 -1.36,0.04 -2.66,0.06 -3.9,0.06 -1.23,0 -2.02,0 -2.36,0 -0.43,0.07 -1.32,0.14 -2.68,0.22 -1.37,0.07 -2.27,0.14 -2.69,0.22z"/>
  <path id="7" class="fil1" d="M263.92 76.26c-0.69,0 -1.69,0.03 -3.01,0.11 -1.32,0.07 -2.72,0.11 -4.22,0.11 -1.49,0 -2.92,-0.02 -4.28,-0.06 -1.36,-0.03 -2.34,-0.16 -2.94,-0.38 -0.85,-0.37 -1.53,-0.88 -2.04,-1.54 -0.26,-0.44 -0.43,-1.14 -0.51,-2.09 -0.09,-0.95 -0.13,-1.96 -0.13,-3.02 0,-1.06 0.02,-2.07 0.06,-3.03 0.04,-0.95 0.07,-1.68 0.07,-2.19 0,-0.52 0.02,-1.49 0.06,-2.92 0.04,-1.43 0.09,-2.95 0.13,-4.56 0.04,-1.61 0.06,-3.13 0.06,-4.56 0,-1.43 0,-2.4 0,-2.91 0,-0.81 -0.04,-2.19 -0.13,-4.13 -0.08,-1.94 -0.17,-4.16 -0.25,-6.65 -0.09,-2.49 -0.17,-5.11 -0.26,-7.86 -0.08,-2.75 -0.15,-5.35 -0.19,-7.8 -0.04,-2.46 -0.06,-4.66 -0.06,-6.6 0,-1.94 0.04,-3.32 0.12,-4.12 0.09,-0.74 0.26,-1.49 0.52,-2.26 0.25,-0.77 0.72,-1.33 1.4,-1.7 0.26,-0.15 0.7,-0.28 1.34,-0.39 0.64,-0.11 1.3,-0.2 1.98,-0.27 0.69,-0.07 1.37,-0.15 2.05,-0.22 0.68,-0.07 1.15,-0.11 1.41,-0.11 0.34,0 0.97,0.02 1.91,0.05 0.94,0.04 1.92,0.1 2.94,0.17 1.02,0.07 1.99,0.14 2.88,0.22 0.89,0.07 1.55,0.14 1.98,0.22 0.94,0.15 1.66,0.44 2.18,0.88 0.33,0.37 0.55,0.9 0.63,1.59 0.09,0.7 0.13,1.43 0.13,2.2 0,0.77 -0.04,1.52 -0.13,2.25 -0.08,0.74 -0.13,1.32 -0.13,1.77 -0.17,2.85 -0.32,5.69 -0.44,8.51 -0.13,2.83 -0.15,5.66 -0.06,8.52 0.08,5.06 0.1,10.06 0.06,15.01 -0.05,4.95 0.15,9.95 0.57,15.01 0,0.58 0.04,1.39 0.13,2.42 0.09,1.02 0.13,2.12 0.13,3.29 0,1.17 -0.07,2.28 -0.19,3.3 -0.13,1.03 -0.37,1.76 -0.7,2.2 -0.26,0.44 -0.67,0.79 -1.22,1.04 -0.55,0.26 -1.17,0.42 -1.85,0.5z"/>
 </g>
</svg>
